<mxfile host="app.diagrams.net" agent="Mozilla/5.0 (Windows NT 10.0; Win64; x64) AppleWebKit/537.36 (KHTML, like Gecko) Chrome/132.0.0.0 Safari/537.36 Edg/132.0.0.0" version="26.0.6">
  <diagram name="第 1 页" id="C4PeSUEnsBu9ra1ATFRL">
    <mxGraphModel dx="936" dy="549" grid="1" gridSize="10" guides="1" tooltips="1" connect="1" arrows="1" fold="1" page="1" pageScale="1" pageWidth="827" pageHeight="1169" math="0" shadow="0">
      <root>
        <mxCell id="0" />
        <mxCell id="1" parent="0" />
        <mxCell id="nU_FtE8QE9kvttXBOMor-4" value="" style="edgeStyle=orthogonalEdgeStyle;rounded=0;orthogonalLoop=1;jettySize=auto;html=1;" edge="1" parent="1" source="nU_FtE8QE9kvttXBOMor-1" target="nU_FtE8QE9kvttXBOMor-3">
          <mxGeometry relative="1" as="geometry" />
        </mxCell>
        <mxCell id="nU_FtE8QE9kvttXBOMor-1" value="&lt;div style=&quot;background-color: rgb(255, 255, 255); font-family: Consolas, &amp;quot;Courier New&amp;quot;, monospace; font-size: 14px; line-height: 19px; white-space: pre;&quot;&gt;&lt;span style=&quot;color: rgb(0, 16, 128);&quot;&gt;nusc&lt;/span&gt;.&lt;span style=&quot;color: rgb(121, 94, 38);&quot;&gt;render_pointcloud_in_image&lt;/span&gt;(&lt;span style=&quot;color: rgb(0, 16, 128);&quot;&gt;my_sample&lt;/span&gt;[&lt;span style=&quot;color: rgb(163, 21, 21);&quot;&gt;&#39;token&#39;&lt;/span&gt;], &lt;span style=&quot;color: rgb(0, 16, 128);&quot;&gt;pointsensor_channel&lt;/span&gt;=&lt;span style=&quot;color: rgb(163, 21, 21);&quot;&gt;&#39;LIDAR_TOP&#39;&lt;/span&gt;)&lt;/div&gt;&lt;div style=&quot;background-color: rgb(255, 255, 255); font-family: Consolas, &amp;quot;Courier New&amp;quot;, monospace; font-size: 14px; line-height: 19px; white-space: pre;&quot;&gt;这里调用&lt;span style=&quot;color: rgb(121, 94, 38);&quot;&gt;render_pointcloud_in_image去将点云投到图像上 这里会给出&lt;/span&gt;&lt;span style=&quot;background-color: transparent; color: rgb(0, 16, 128);&quot;&gt;my_sample&lt;/span&gt;&lt;span style=&quot;color: light-dark(rgb(0, 0, 0), rgb(255, 255, 255));&quot;&gt;[&lt;/span&gt;&lt;span style=&quot;background-color: transparent; color: rgb(163, 21, 21);&quot;&gt;&#39;token&#39;&lt;/span&gt;&lt;span style=&quot;color: light-dark(rgb(0, 0, 0), rgb(255, 255, 255));&quot;&gt;]&lt;/span&gt;&lt;/div&gt;" style="rounded=1;whiteSpace=wrap;html=1;" vertex="1" parent="1">
          <mxGeometry x="30" y="280" width="690" height="60" as="geometry" />
        </mxCell>
        <mxCell id="nU_FtE8QE9kvttXBOMor-6" value="" style="edgeStyle=orthogonalEdgeStyle;rounded=0;orthogonalLoop=1;jettySize=auto;html=1;" edge="1" parent="1" source="nU_FtE8QE9kvttXBOMor-3" target="nU_FtE8QE9kvttXBOMor-5">
          <mxGeometry relative="1" as="geometry" />
        </mxCell>
        <mxCell id="nU_FtE8QE9kvttXBOMor-3" value="&lt;div style=&quot;background-color: rgb(255, 255, 255); font-family: Consolas, &amp;quot;Courier New&amp;quot;, monospace; font-size: 14px; line-height: 19px; white-space: pre;&quot;&gt;&lt;div style=&quot;line-height: 19px;&quot;&gt;&lt;div&gt;&lt;div style=&quot;line-height: 19px;&quot;&gt;&lt;span style=&quot;color: rgb(0, 16, 128);&quot;&gt;sample_record&lt;/span&gt; = &lt;span style=&quot;color: rgb(0, 16, 128);&quot;&gt;self&lt;/span&gt;.&lt;span style=&quot;color: rgb(0, 16, 128);&quot;&gt;nusc&lt;/span&gt;.&lt;span style=&quot;color: rgb(121, 94, 38);&quot;&gt;get&lt;/span&gt;(&lt;span style=&quot;color: rgb(163, 21, 21);&quot;&gt;&#39;sample&#39;&lt;/span&gt;, &lt;span style=&quot;color: rgb(0, 16, 128);&quot;&gt;sample_token&lt;/span&gt;)&lt;/div&gt;&lt;/div&gt;&lt;div&gt;&amp;nbsp; &amp;nbsp; &amp;nbsp; &amp;nbsp; &lt;span style=&quot;color: rgb(0, 16, 128);&quot;&gt;pointsensor_token&lt;/span&gt; = &lt;span style=&quot;color: rgb(0, 16, 128);&quot;&gt;sample_record&lt;/span&gt;[&lt;span style=&quot;color: rgb(163, 21, 21);&quot;&gt;&#39;data&#39;&lt;/span&gt;][&lt;span style=&quot;color: rgb(0, 16, 128);&quot;&gt;pointsensor_channel&lt;/span&gt;]&lt;/div&gt;&lt;div&gt;&amp;nbsp; &amp;nbsp; &amp;nbsp; &amp;nbsp; &lt;span style=&quot;color: rgb(0, 16, 128);&quot;&gt;camera_token&lt;/span&gt; = &lt;span style=&quot;color: rgb(0, 16, 128);&quot;&gt;sample_record&lt;/span&gt;[&lt;span style=&quot;color: rgb(163, 21, 21);&quot;&gt;&#39;data&#39;&lt;/span&gt;][&lt;span style=&quot;color: rgb(0, 16, 128);&quot;&gt;camera_channel&lt;/span&gt;]&lt;/div&gt;&lt;div&gt;这里根据给到的&lt;span style=&quot;color: rgb(0, 16, 128); background-color: light-dark(rgb(255, 255, 255), rgb(18, 18, 18));&quot;&gt;sample_token分别获取了点运河cam的token&lt;/span&gt;&lt;/div&gt;&lt;/div&gt;&lt;/div&gt;" style="rounded=1;whiteSpace=wrap;html=1;" vertex="1" parent="1">
          <mxGeometry x="30" y="420" width="690" height="100" as="geometry" />
        </mxCell>
        <mxCell id="nU_FtE8QE9kvttXBOMor-8" value="" style="edgeStyle=orthogonalEdgeStyle;rounded=0;orthogonalLoop=1;jettySize=auto;html=1;" edge="1" parent="1" source="nU_FtE8QE9kvttXBOMor-5" target="nU_FtE8QE9kvttXBOMor-7">
          <mxGeometry relative="1" as="geometry" />
        </mxCell>
        <mxCell id="nU_FtE8QE9kvttXBOMor-5" value="&lt;div style=&quot;background-color: rgb(255, 255, 255); font-family: Consolas, &amp;quot;Courier New&amp;quot;, monospace; font-size: 14px; line-height: 19px; white-space: pre;&quot;&gt;&lt;div style=&quot;line-height: 19px;&quot;&gt;&lt;div style=&quot;line-height: 19px;&quot;&gt;&lt;div style=&quot;line-height: 19px;&quot;&gt;&lt;div&gt;&lt;span style=&quot;color: #001080;&quot;&gt;points&lt;/span&gt;, &lt;span style=&quot;color: #001080;&quot;&gt;coloring&lt;/span&gt;, &lt;span style=&quot;color: #001080;&quot;&gt;im&lt;/span&gt; = &lt;span style=&quot;color: #001080;&quot;&gt;self&lt;/span&gt;.&lt;span style=&quot;color: #795e26;&quot;&gt;map_pointcloud_to_image&lt;/span&gt;(&lt;span style=&quot;color: #001080;&quot;&gt;pointsensor_token&lt;/span&gt;, &lt;span style=&quot;color: #001080;&quot;&gt;camera_token&lt;/span&gt;,&lt;font style=&quot;background-color: light-dark(rgb(255, 255, 255), rgb(18, 18, 18));&quot; color=&quot;#001080&quot;&gt;...&lt;/font&gt;&lt;span style=&quot;color: light-dark(rgb(0, 0, 0), rgb(255, 255, 255)); background-color: light-dark(rgb(255, 255, 255), rgb(18, 18, 18));&quot;&gt;)&lt;/span&gt;&lt;/div&gt;&lt;div&gt;这里将上面获取的两个token给到&lt;span style=&quot;color: rgb(121, 94, 38); background-color: light-dark(rgb(255, 255, 255), rgb(18, 18, 18));&quot;&gt;map_pointcloud_to_image要做一些变换&lt;/span&gt;&lt;/div&gt;&lt;/div&gt;&lt;/div&gt;&lt;/div&gt;&lt;/div&gt;" style="rounded=1;whiteSpace=wrap;html=1;" vertex="1" parent="1">
          <mxGeometry x="30" y="600" width="690" height="70" as="geometry" />
        </mxCell>
        <mxCell id="nU_FtE8QE9kvttXBOMor-7" value="&lt;div style=&quot;background-color: rgb(255, 255, 255); font-family: Consolas, &amp;quot;Courier New&amp;quot;, monospace; font-size: 14px; line-height: 19px; white-space: pre;&quot;&gt;&lt;div style=&quot;line-height: 19px;&quot;&gt;&lt;div style=&quot;line-height: 19px;&quot;&gt;&lt;div style=&quot;line-height: 19px;&quot;&gt;&lt;div style=&quot;line-height: 19px;&quot;&gt;&lt;div&gt;&lt;span style=&quot;color: rgb(0, 16, 128);&quot;&gt;cam&lt;/span&gt; = &lt;span style=&quot;color: rgb(0, 16, 128);&quot;&gt;self&lt;/span&gt;.&lt;span style=&quot;color: rgb(0, 16, 128);&quot;&gt;nusc&lt;/span&gt;.&lt;span style=&quot;color: rgb(121, 94, 38);&quot;&gt;get&lt;/span&gt;(&lt;span style=&quot;color: rgb(163, 21, 21);&quot;&gt;&#39;sample_data&#39;&lt;/span&gt;, &lt;span style=&quot;color: rgb(0, 16, 128);&quot;&gt;camera_token&lt;/span&gt;)&lt;/div&gt;&lt;div&gt;&amp;nbsp; &amp;nbsp; &amp;nbsp; &amp;nbsp; &lt;span style=&quot;color: rgb(0, 16, 128);&quot;&gt;pointsensor&lt;/span&gt; = &lt;span style=&quot;color: rgb(0, 16, 128);&quot;&gt;self&lt;/span&gt;.&lt;span style=&quot;color: rgb(0, 16, 128);&quot;&gt;nusc&lt;/span&gt;.&lt;span style=&quot;color: rgb(121, 94, 38);&quot;&gt;get&lt;/span&gt;(&lt;span style=&quot;color: rgb(163, 21, 21);&quot;&gt;&#39;sample_data&#39;&lt;/span&gt;, &lt;span style=&quot;color: rgb(0, 16, 128);&quot;&gt;pointsensor_token&lt;/span&gt;)&lt;/div&gt;&lt;div&gt;&lt;div style=&quot;line-height: 19px;&quot;&gt;&lt;span style=&quot;color: rgb(0, 16, 128);&quot;&gt;poserecord&lt;/span&gt; = &lt;span style=&quot;color: rgb(0, 16, 128);&quot;&gt;self&lt;/span&gt;.&lt;span style=&quot;color: rgb(0, 16, 128);&quot;&gt;nusc&lt;/span&gt;.&lt;span style=&quot;color: rgb(121, 94, 38);&quot;&gt;get&lt;/span&gt;(&lt;span style=&quot;color: rgb(163, 21, 21);&quot;&gt;&#39;ego_pose&#39;&lt;/span&gt;, &lt;span style=&quot;color: rgb(0, 16, 128);&quot;&gt;pointsensor&lt;/span&gt;[&lt;span style=&quot;color: rgb(163, 21, 21);&quot;&gt;&#39;ego_pose_token&#39;&lt;/span&gt;]) &lt;span style=&quot;color: rgb(0, 128, 0);&quot;&gt;#point时刻的自车坐标&lt;/span&gt;&lt;/div&gt;&lt;/div&gt;&lt;div&gt;&lt;div style=&quot;line-height: 19px;&quot;&gt;&lt;span style=&quot;color: rgb(0, 16, 128);&quot;&gt;poserecord&lt;/span&gt; = &lt;span style=&quot;color: rgb(0, 16, 128);&quot;&gt;self&lt;/span&gt;.&lt;span style=&quot;color: rgb(0, 16, 128);&quot;&gt;nusc&lt;/span&gt;.&lt;span style=&quot;color: rgb(121, 94, 38);&quot;&gt;get&lt;/span&gt;(&lt;span style=&quot;color: rgb(163, 21, 21);&quot;&gt;&#39;ego_pose&#39;&lt;/span&gt;, &lt;span style=&quot;color: rgb(0, 16, 128);&quot;&gt;cam&lt;/span&gt;[&lt;span style=&quot;color: rgb(163, 21, 21);&quot;&gt;&#39;ego_pose_token&#39;&lt;/span&gt;]) &amp;nbsp;&lt;span style=&quot;color: rgb(0, 128, 0);&quot;&gt;#cam时刻的自车坐标&lt;/span&gt;&lt;/div&gt;&lt;/div&gt;&lt;div style=&quot;line-height: 19px;&quot;&gt;&lt;span style=&quot;color: rgb(0, 128, 0);&quot;&gt;不懂的是这里为什么获取了两个自车坐标系&lt;/span&gt;&lt;/div&gt;&lt;/div&gt;&lt;/div&gt;&lt;/div&gt;&lt;/div&gt;&lt;/div&gt;" style="rounded=1;whiteSpace=wrap;html=1;" vertex="1" parent="1">
          <mxGeometry x="25" y="750" width="700" height="100" as="geometry" />
        </mxCell>
      </root>
    </mxGraphModel>
  </diagram>
</mxfile>
